<svg width="201" height="56" viewBox="0 0 201 56" fill="none" xmlns="http://www.w3.org/2000/svg">
<rect x="-0.000366211" y="-6.10352e-05" width="201" height="56" rx="8" fill="url(#paint0_linear_28_781)"/>
<rect x="1.04963" y="1.04994" width="198.9" height="53.9" rx="6.95" stroke="white" stroke-opacity="0.15" stroke-width="2.1"/>
<g filter="url(#filter0_d_28_781)">
<path d="M45.8599 15.493C43.2977 14.3368 40.5753 13.496 37.7141 13.0019C37.6607 13.0019 37.6073 13.0019 37.586 13.065C37.2336 13.6852 36.8386 14.484 36.5717 15.1146C33.4757 14.6627 30.433 14.6627 27.4223 15.1146C27.1447 14.463 26.7497 13.6746 26.3547 13.065C26.3227 13.023 26.28 12.9914 26.2266 13.0019C23.7711 13.4854 20.6323 14.3684 18.1127 15.493C18.0914 15.493 18.07 15.514 18.0594 15.5351C12.8281 23.208 11.4402 30.5656 12.1875 37.9232C12.1875 37.9547 12.2089 37.9967 12.2409 38.0283C15.6572 40.5088 18.9668 42.0224 22.2337 42.9999C22.2871 42.9999 22.3405 42.9999 22.3725 42.9579C23.1412 41.9278 23.8245 40.8347 24.4223 39.6785C24.4543 39.6154 24.4223 39.5313 24.3476 39.5103C23.28 39.0899 22.2124 38.6064 21.2195 38.0388C21.1448 37.9967 21.1341 37.8811 21.2195 37.8286C21.433 37.6709 21.6465 37.5132 21.8387 37.3556C21.8707 37.324 21.9241 37.324 21.9668 37.3346C28.5219 40.2776 35.6322 40.2776 42.0379 37.3346C42.0806 37.3135 42.134 37.324 42.166 37.3451C42.3688 37.5132 42.5717 37.6709 42.7852 37.8286C42.86 37.8811 42.8493 37.9967 42.7852 38.0388C41.7923 38.6169 40.7568 39.0899 39.6571 39.5103C39.5824 39.5418 39.5504 39.6154 39.5931 39.689C40.1909 40.8452 40.8849 41.9278 41.6215 42.9473C41.6535 42.9894 41.7069 43.0104 41.7603 42.9894C45.0272 41.9909 48.3475 40.4878 51.7745 38.0178C51.8065 37.9967 51.8279 37.9652 51.8279 37.9126C52.6606 29.4094 50.4293 22.0413 45.9133 15.5245C45.9133 15.5035 45.8813 15.4825 45.8599 15.4825V15.493ZM25.3618 33.4666C23.3334 33.4666 21.7319 31.6797 21.7319 29.4724C21.7319 27.2652 23.3334 25.4783 25.3618 25.4783C27.3903 25.4783 28.9917 27.2652 28.9917 29.4724C28.9917 31.6797 27.3903 33.4666 25.3618 33.4666ZM38.7069 33.4666C36.6785 33.4666 35.0771 31.6797 35.0771 29.4724C35.0771 27.2652 36.6785 25.4783 38.7069 25.4783C40.7354 25.4783 42.3368 27.2652 42.3368 29.4724C42.3368 31.6797 40.7354 33.4666 38.7069 33.4666Z" fill="#5865F2"/>
</g>
<g filter="url(#filter1_d_28_781)">
<path d="M65.0451 24.4999H61.278V12.8636H65.1644C66.3046 12.8636 67.2837 13.0965 68.1019 13.5624C68.9201 14.0246 69.547 14.6893 69.9826 15.5568C70.422 16.4204 70.6417 17.4564 70.6417 18.6647C70.6417 19.8768 70.4201 20.9185 69.9769 21.7897C69.5375 22.6609 68.9011 23.3314 68.0678 23.8011C67.2345 24.267 66.2269 24.4999 65.0451 24.4999ZM63.0337 22.9658H64.9485C65.8349 22.9658 66.5716 22.7992 67.1587 22.4658C67.7458 22.1287 68.1852 21.642 68.4769 21.0056C68.7686 20.3655 68.9144 19.5852 68.9144 18.6647C68.9144 17.7518 68.7686 16.9772 68.4769 16.3408C68.189 15.7045 67.7591 15.2215 67.1871 14.892C66.6152 14.5624 65.9049 14.3977 65.0565 14.3977H63.0337V22.9658ZM72.6886 24.4999V15.7727H74.3874V24.4999H72.6886ZM73.5465 14.4261C73.2511 14.4261 72.9973 14.3276 72.7851 14.1306C72.5768 13.9299 72.4726 13.6912 72.4726 13.4147C72.4726 13.1344 72.5768 12.8958 72.7851 12.6988C72.9973 12.498 73.2511 12.3977 73.5465 12.3977C73.842 12.3977 74.0939 12.498 74.3022 12.6988C74.5143 12.8958 74.6204 13.1344 74.6204 13.4147C74.6204 13.6912 74.5143 13.9299 74.3022 14.1306C74.0939 14.3276 73.842 14.4261 73.5465 14.4261ZM83.2127 17.9033L81.6729 18.1761C81.6085 17.9791 81.5063 17.7916 81.3661 17.6136C81.2297 17.4355 81.0441 17.2897 80.8093 17.1761C80.5744 17.0624 80.2809 17.0056 79.9286 17.0056C79.4475 17.0056 79.046 17.1136 78.7241 17.3295C78.4021 17.5416 78.2411 17.8162 78.2411 18.1533C78.2411 18.445 78.3491 18.6799 78.565 18.8579C78.7809 19.0359 79.1294 19.1818 79.6104 19.2954L80.9968 19.6136C81.7998 19.7992 82.3983 20.0852 82.7922 20.4715C83.1862 20.8579 83.3831 21.3598 83.3831 21.9772C83.3831 22.4999 83.2316 22.9658 82.9286 23.3749C82.6294 23.7802 82.2108 24.0984 81.6729 24.3295C81.1388 24.5605 80.5195 24.6761 79.815 24.6761C78.8377 24.6761 78.0403 24.4677 77.4229 24.0511C76.8055 23.6306 76.4267 23.034 76.2866 22.2613L77.9286 22.0113C78.0309 22.4393 78.2411 22.7632 78.5593 22.9829C78.8775 23.1988 79.2922 23.3068 79.8036 23.3068C80.3604 23.3068 80.8055 23.1912 81.1388 22.9602C81.4722 22.7253 81.6388 22.4393 81.6388 22.1022C81.6388 21.8295 81.5366 21.6003 81.332 21.4147C81.1313 21.2291 80.8225 21.089 80.4059 20.9943L78.9286 20.6704C78.1142 20.4848 77.5119 20.1893 77.1218 19.784C76.7354 19.3787 76.5422 18.8655 76.5422 18.2443C76.5422 17.7291 76.6862 17.2783 76.9741 16.892C77.2619 16.5056 77.6597 16.2045 78.1672 15.9886C78.6748 15.7689 79.2563 15.659 79.9116 15.659C80.8547 15.659 81.5972 15.8636 82.1388 16.2727C82.6805 16.678 83.0385 17.2215 83.2127 17.9033ZM88.9272 24.6761C88.0825 24.6761 87.3552 24.4848 86.7454 24.1022C86.1393 23.7158 85.6734 23.1836 85.3476 22.5056C85.0219 21.8276 84.859 21.0511 84.859 20.1761C84.859 19.2897 85.0257 18.5075 85.359 17.8295C85.6923 17.1477 86.162 16.6155 86.7681 16.2329C87.3742 15.8503 88.0882 15.659 88.9101 15.659C89.573 15.659 90.1639 15.7821 90.6829 16.0283C91.2018 16.2708 91.6204 16.6117 91.9385 17.0511C92.2605 17.4905 92.4518 18.0037 92.5124 18.5908H90.859C90.7681 18.1818 90.5598 17.8295 90.234 17.534C89.912 17.2386 89.4802 17.0908 88.9385 17.0908C88.4651 17.0908 88.0503 17.2158 87.6942 17.4658C87.342 17.7121 87.0673 18.0643 86.8704 18.5227C86.6734 18.9772 86.5749 19.5151 86.5749 20.1363C86.5749 20.7727 86.6715 21.3219 86.8647 21.784C87.0579 22.2461 87.3306 22.6041 87.6829 22.8579C88.0389 23.1117 88.4575 23.2386 88.9385 23.2386C89.2605 23.2386 89.5522 23.1799 89.8135 23.0624C90.0787 22.9412 90.3003 22.7689 90.4783 22.5454C90.6601 22.3219 90.787 22.053 90.859 21.7386H92.5124C92.4518 22.303 92.2681 22.8068 91.9613 23.2499C91.6545 23.6931 91.2435 24.0416 90.7283 24.2954C90.217 24.5492 89.6166 24.6761 88.9272 24.6761ZM98.0053 24.6761C97.1871 24.6761 96.4731 24.4886 95.8633 24.1136C95.2534 23.7386 94.7799 23.2139 94.4428 22.5397C94.1057 21.8655 93.9371 21.0776 93.9371 20.1761C93.9371 19.2708 94.1057 18.4791 94.4428 17.8011C94.7799 17.123 95.2534 16.5965 95.8633 16.2215C96.4731 15.8465 97.1871 15.659 98.0053 15.659C98.8235 15.659 99.5375 15.8465 100.147 16.2215C100.757 16.5965 101.231 17.123 101.568 17.8011C101.905 18.4791 102.073 19.2708 102.073 20.1761C102.073 21.0776 101.905 21.8655 101.568 22.5397C101.231 23.2139 100.757 23.7386 100.147 24.1136C99.5375 24.4886 98.8235 24.6761 98.0053 24.6761ZM98.011 23.2499C98.5413 23.2499 98.9807 23.1098 99.3292 22.8295C99.6777 22.5492 99.9352 22.1761 100.102 21.7102C100.272 21.2443 100.358 20.731 100.358 20.1704C100.358 19.6136 100.272 19.1022 100.102 18.6363C99.9352 18.1666 99.6777 17.7897 99.3292 17.5056C98.9807 17.2215 98.5413 17.0795 98.011 17.0795C97.4769 17.0795 97.0337 17.2215 96.6814 17.5056C96.333 17.7897 96.0735 18.1666 95.903 18.6363C95.7364 19.1022 95.653 19.6136 95.653 20.1704C95.653 20.731 95.7364 21.2443 95.903 21.7102C96.0735 22.1761 96.333 22.5492 96.6814 22.8295C97.0337 23.1098 97.4769 23.2499 98.011 23.2499ZM103.97 24.4999V15.7727H105.612V17.159H105.703C105.862 16.6893 106.142 16.32 106.544 16.0511C106.949 15.7783 107.407 15.642 107.919 15.642C108.025 15.642 108.15 15.6458 108.294 15.6533C108.441 15.6609 108.557 15.6704 108.64 15.6818V17.3068C108.572 17.2878 108.451 17.267 108.277 17.2443C108.102 17.2177 107.928 17.2045 107.754 17.2045C107.352 17.2045 106.994 17.2897 106.68 17.4602C106.369 17.6268 106.123 17.8598 105.941 18.159C105.76 18.4545 105.669 18.7916 105.669 19.1704V24.4999H103.97ZM113.065 24.6704C112.36 24.6704 111.732 24.4905 111.179 24.1306C110.629 23.767 110.198 23.2499 109.883 22.5795C109.573 21.9052 109.417 21.0965 109.417 20.1533C109.417 19.2102 109.574 18.4033 109.889 17.7329C110.207 17.0624 110.643 16.5492 111.196 16.1931C111.749 15.8371 112.376 15.659 113.076 15.659C113.618 15.659 114.054 15.7499 114.383 15.9318C114.716 16.1098 114.974 16.3181 115.156 16.5568C115.341 16.7954 115.485 17.0056 115.588 17.1874H115.69V12.8636H117.389V24.4999H115.73V23.142H115.588C115.485 23.3276 115.338 23.5397 115.145 23.7783C114.955 24.017 114.694 24.2253 114.36 24.4033C114.027 24.5814 113.595 24.6704 113.065 24.6704ZM113.44 23.2215C113.929 23.2215 114.341 23.0927 114.679 22.8352C115.02 22.5738 115.277 22.2121 115.451 21.7499C115.629 21.2878 115.718 20.7499 115.718 20.1363C115.718 19.5302 115.631 18.9999 115.457 18.5454C115.283 18.0908 115.027 17.7367 114.69 17.4829C114.353 17.2291 113.936 17.1022 113.44 17.1022C112.929 17.1022 112.502 17.2348 112.162 17.4999C111.821 17.7651 111.563 18.1268 111.389 18.5852C111.218 19.0435 111.133 19.5605 111.133 20.1363C111.133 20.7196 111.22 21.2443 111.395 21.7102C111.569 22.1761 111.826 22.5454 112.167 22.8181C112.512 23.0871 112.936 23.2215 113.44 23.2215Z" fill="#5865F2"/>
<path d="M69.3569 47.1644C68.0529 47.1644 66.8898 46.9873 65.8675 46.6331C64.8453 46.283 63.98 45.7678 63.2716 45.0876C62.5633 44.4115 62.024 43.5885 61.6538 42.6185C61.2835 41.6486 61.0963 40.5439 61.0923 39.3043C61.0963 38.0768 61.2835 36.9599 61.6538 35.9538C62.028 34.9436 62.5734 34.0743 63.2898 33.3458C64.0102 32.6133 64.8916 32.0479 65.9339 31.6494C66.9803 31.251 68.1736 31.0518 69.5138 31.0518C70.7373 31.0518 71.836 31.2248 72.81 31.571C73.784 31.9171 74.613 32.4161 75.2972 33.0681C75.9854 33.7201 76.5106 34.5069 76.8729 35.4286C77.2351 36.3502 77.4142 37.3906 77.4101 38.5497C77.4142 39.3425 77.3377 40.0528 77.1807 40.6807C77.0238 41.3085 76.7843 41.8458 76.4623 42.2925C76.1444 42.7393 75.7419 43.0914 75.255 43.349C74.772 43.6026 74.2025 43.7535 73.5465 43.8018C73.0153 43.8461 72.6128 43.8139 72.3391 43.7052C72.0654 43.5965 71.8723 43.4396 71.7596 43.2343C71.6469 43.025 71.5684 42.7916 71.5241 42.534H71.4517C71.3591 42.7795 71.1559 42.9989 70.842 43.1921C70.5321 43.3812 70.1618 43.5241 69.7312 43.6207C69.3005 43.7213 68.8578 43.7575 68.403 43.7293C67.9442 43.6971 67.4975 43.5885 67.0628 43.4033C66.6282 43.2142 66.2358 42.9385 65.8856 42.5763C65.5395 42.21 65.2638 41.7492 65.0586 41.1938C64.8574 40.6384 64.7547 39.9844 64.7507 39.2318C64.7547 38.4792 64.8594 37.8333 65.0646 37.294C65.2739 36.7506 65.5456 36.2999 65.8796 35.9417C66.2177 35.5795 66.5879 35.2998 66.9904 35.1026C67.3929 34.9013 67.7873 34.7705 68.1736 34.7102C68.6405 34.6297 69.0913 34.6236 69.5259 34.6921C69.9606 34.7605 70.3268 34.8711 70.6246 35.0241C70.9265 35.177 71.1136 35.342 71.1861 35.5191H71.2766V34.843H73.3654V40.8799C73.3734 41.1415 73.4258 41.3307 73.5224 41.4474C73.6189 41.5641 73.7437 41.6224 73.8966 41.6224C74.1301 41.6224 74.3353 41.5077 74.5124 41.2783C74.6935 41.0449 74.8324 40.6887 74.929 40.2098C75.0296 39.7269 75.0779 39.1131 75.0738 38.3685C75.0779 37.5395 74.9692 36.8311 74.7479 36.2435C74.5305 35.6519 74.2347 35.1629 73.8604 34.7766C73.4861 34.3902 73.0595 34.0884 72.5806 33.871C72.1057 33.6497 71.6026 33.4947 71.0714 33.4062C70.5401 33.3176 70.0169 33.2734 69.5018 33.2734C68.4755 33.2734 67.5881 33.4283 66.8395 33.7382C66.0909 34.0441 65.4711 34.4687 64.9801 35.012C64.4891 35.5553 64.1229 36.1852 63.8814 36.9016C63.6439 37.6139 63.5232 38.3786 63.5192 39.1956C63.5232 40.1253 63.656 40.9483 63.9176 41.6647C64.1792 42.3771 64.5636 42.9747 65.0707 43.4577C65.5778 43.9406 66.2036 44.3049 66.9481 44.5504C67.6967 44.7999 68.554 44.9247 69.5199 44.9247C69.9908 44.9247 70.4496 44.8945 70.8963 44.8341C71.343 44.7737 71.7495 44.6973 72.1158 44.6047C72.486 44.5121 72.7899 44.4155 73.0273 44.3149L73.7155 46.2769C73.462 46.4339 73.1118 46.5788 72.6651 46.7116C72.2224 46.8484 71.7153 46.9571 71.1438 47.0376C70.5763 47.1221 69.9807 47.1644 69.3569 47.1644ZM69.212 41.4896C69.6909 41.4896 70.0692 41.4011 70.3469 41.224C70.6246 41.0429 70.8218 40.7773 70.9386 40.4271C71.0553 40.077 71.1076 39.6484 71.0955 39.1413C71.0955 38.7227 71.0432 38.3524 70.9386 38.0305C70.8339 37.7085 70.6448 37.455 70.3711 37.2698C70.0974 37.0847 69.703 36.9921 69.1878 36.9921C68.7451 36.9921 68.3688 37.0787 68.0589 37.2517C67.7531 37.4248 67.5176 37.6723 67.3526 37.9943C67.1916 38.3162 67.1111 38.7046 67.1111 39.1594C67.1111 39.5578 67.1775 39.9361 67.3104 40.2943C67.4432 40.6485 67.6625 40.9363 67.9684 41.1576C68.2743 41.379 68.6888 41.4896 69.212 41.4896ZM81.9499 38.2116V43.4999H78.9979V34.2272H81.805V35.9296H81.9077C82.1129 35.3622 82.4631 34.9174 82.9581 34.5955C83.4531 34.2695 84.0427 34.1065 84.7269 34.1065C85.3789 34.1065 85.9443 34.2534 86.4233 34.5472C86.9062 34.8369 87.2805 35.2434 87.5461 35.7666C87.8158 36.2858 87.9486 36.8935 87.9446 37.5898V43.4999H84.9925V38.1693C84.9965 37.6542 84.8657 37.2517 84.6001 36.9619C84.3385 36.6722 83.9743 36.5273 83.5074 36.5273C83.1975 36.5273 82.9239 36.5957 82.6864 36.7325C82.453 36.8653 82.2719 37.0565 82.1431 37.306C82.0183 37.5556 81.9539 37.8574 81.9499 38.2116ZM94.1007 43.675C93.1268 43.675 92.2897 43.4758 91.5894 43.0773C90.8931 42.6749 90.3558 42.1155 89.9775 41.3991C89.6032 40.6787 89.4161 39.8436 89.4161 38.8938C89.4161 37.9399 89.6032 37.1048 89.9775 36.3884C90.3558 35.668 90.8931 35.1086 91.5894 34.7102C92.2897 34.3077 93.1268 34.1065 94.1007 34.1065C95.0747 34.1065 95.9098 34.3077 96.6061 34.7102C97.3064 35.1086 97.8436 35.668 98.2179 36.3884C98.5962 37.1048 98.7854 37.9399 98.7854 38.8938C98.7854 39.8436 98.5962 40.6787 98.2179 41.3991C97.8436 42.1155 97.3064 42.6749 96.6061 43.0773C95.9098 43.4758 95.0747 43.675 94.1007 43.675ZM94.1189 41.4474C94.473 41.4474 94.7729 41.3387 95.0184 41.1214C95.2639 40.9041 95.451 40.6022 95.5798 40.2158C95.7126 39.8295 95.779 39.3827 95.779 38.8756C95.779 38.3605 95.7126 37.9097 95.5798 37.5234C95.451 37.137 95.2639 36.8352 95.0184 36.6178C94.7729 36.4005 94.473 36.2918 94.1189 36.2918C93.7526 36.2918 93.4427 36.4005 93.1892 36.6178C92.9396 36.8352 92.7485 37.137 92.6157 37.5234C92.4869 37.9097 92.4225 38.3605 92.4225 38.8756C92.4225 39.3827 92.4869 39.8295 92.6157 40.2158C92.7485 40.6022 92.9396 40.9041 93.1892 41.1214C93.4427 41.3387 93.7526 41.4474 94.1189 41.4474ZM104.626 43.675C103.652 43.675 102.815 43.4758 102.115 43.0773C101.419 42.6749 100.881 42.1155 100.503 41.3991C100.129 40.6787 99.9415 39.8436 99.9415 38.8938C99.9415 37.9399 100.129 37.1048 100.503 36.3884C100.881 35.668 101.419 35.1086 102.115 34.7102C102.815 34.3077 103.652 34.1065 104.626 34.1065C105.6 34.1065 106.435 34.3077 107.131 34.7102C107.832 35.1086 108.369 35.668 108.743 36.3884C109.122 37.1048 109.311 37.9399 109.311 38.8938C109.311 39.8436 109.122 40.6787 108.743 41.3991C108.369 42.1155 107.832 42.6749 107.131 43.0773C106.435 43.4758 105.6 43.675 104.626 43.675ZM104.644 41.4474C104.998 41.4474 105.298 41.3387 105.544 41.1214C105.789 40.9041 105.976 40.6022 106.105 40.2158C106.238 39.8295 106.304 39.3827 106.304 38.8756C106.304 38.3605 106.238 37.9097 106.105 37.5234C105.976 37.137 105.789 36.8352 105.544 36.6178C105.298 36.4005 104.998 36.2918 104.644 36.2918C104.278 36.2918 103.968 36.4005 103.715 36.6178C103.465 36.8352 103.274 37.137 103.141 37.5234C103.012 37.9097 102.948 38.3605 102.948 38.8756C102.948 39.3827 103.012 39.8295 103.141 40.2158C103.274 40.6022 103.465 40.9041 103.715 41.1214C103.968 41.3387 104.278 41.4474 104.644 41.4474ZM110.823 43.4999V31.1363H113.775V35.8149H113.835C113.956 35.5332 114.127 35.2615 114.349 34.9999C114.574 34.7383 114.86 34.525 115.206 34.36C115.556 34.191 115.975 34.1065 116.462 34.1065C117.105 34.1065 117.707 34.2755 118.267 34.6136C118.83 34.9516 119.285 35.4728 119.631 36.1771C119.977 36.8814 120.15 37.7789 120.15 38.8696C120.15 39.92 119.983 40.7994 119.649 41.5077C119.319 42.2161 118.872 42.7473 118.309 43.1015C117.749 43.4557 117.128 43.6327 116.443 43.6327C115.977 43.6327 115.572 43.5563 115.23 43.4033C114.888 43.2504 114.6 43.0492 114.367 42.7997C114.137 42.5501 113.96 42.2825 113.835 41.9967H113.745V43.4999H110.823ZM113.715 38.8636C113.715 39.3626 113.781 39.7973 113.914 40.1675C114.051 40.5378 114.246 40.8256 114.5 41.0308C114.757 41.2321 115.065 41.3327 115.423 41.3327C115.785 41.3327 116.093 41.2321 116.347 41.0308C116.6 40.8256 116.792 40.5378 116.92 40.1675C117.053 39.7973 117.12 39.3626 117.12 38.8636C117.12 38.3645 117.053 37.9319 116.92 37.5656C116.792 37.1994 116.6 36.9157 116.347 36.7144C116.097 36.5132 115.789 36.4126 115.423 36.4126C115.061 36.4126 114.753 36.5112 114.5 36.7084C114.246 36.9056 114.051 37.1873 113.914 37.5536C113.781 37.9198 113.715 38.3565 113.715 38.8636ZM126.032 43.675C125.062 43.675 124.225 43.4838 123.52 43.1015C122.82 42.7151 122.281 42.1658 121.902 41.4534C121.528 40.737 121.341 39.8858 121.341 38.8998C121.341 37.9419 121.53 37.1048 121.908 36.3884C122.287 35.668 122.82 35.1086 123.508 34.7102C124.196 34.3077 125.007 34.1065 125.941 34.1065C126.601 34.1065 127.205 34.2091 127.752 34.4144C128.299 34.6196 128.772 34.9235 129.171 35.3259C129.569 35.7284 129.879 36.2254 130.1 36.8171C130.322 37.4046 130.432 38.0788 130.432 38.8394V39.5759H122.373V37.8614H127.686C127.682 37.5475 127.607 37.2678 127.462 37.0223C127.317 36.7768 127.118 36.5856 126.865 36.4488C126.615 36.3079 126.327 36.2375 126.001 36.2375C125.671 36.2375 125.376 36.312 125.114 36.4609C124.852 36.6058 124.645 36.805 124.492 37.0585C124.339 37.3081 124.259 37.5918 124.251 37.9097V39.6544C124.251 40.0327 124.325 40.3648 124.474 40.6505C124.623 40.9322 124.834 41.1516 125.108 41.3085C125.382 41.4655 125.708 41.544 126.086 41.544C126.348 41.544 126.585 41.5077 126.798 41.4353C127.012 41.3629 127.195 41.2562 127.348 41.1153C127.501 40.9745 127.615 40.8014 127.692 40.5962L130.402 40.6747C130.29 41.2824 130.042 41.8116 129.66 42.2624C129.281 42.7091 128.784 43.0572 128.169 43.3068C127.553 43.5523 126.841 43.675 126.032 43.675ZM134.319 34.2272L135.846 37.2819L137.428 34.2272H140.404L137.814 38.8636L140.501 43.4999H137.549L135.846 40.4211L134.186 43.4999H131.192L133.884 38.8636L131.324 34.2272H134.319ZM141.752 46.9772V34.2272H144.674V35.8149H144.764C144.885 35.5332 145.056 35.2615 145.277 34.9999C145.503 34.7383 145.788 34.525 146.135 34.36C146.485 34.191 146.903 34.1065 147.39 34.1065C148.034 34.1065 148.636 34.2755 149.195 34.6136C149.759 34.9516 150.214 35.4728 150.56 36.1771C150.906 36.8814 151.079 37.7789 151.079 38.8696C151.079 39.92 150.912 40.7994 150.578 41.5077C150.248 42.2161 149.801 42.7473 149.238 43.1015C148.678 43.4557 148.056 43.6327 147.372 43.6327C146.905 43.6327 146.501 43.5563 146.159 43.4033C145.817 43.2504 145.529 43.0492 145.295 42.7997C145.066 42.5501 144.889 42.2825 144.764 41.9967H144.704V46.9772H141.752ZM144.643 38.8636C144.643 39.3626 144.71 39.7973 144.843 40.1675C144.979 40.5378 145.175 40.8256 145.428 41.0308C145.686 41.2321 145.994 41.3327 146.352 41.3327C146.714 41.3327 147.022 41.2321 147.276 41.0308C147.529 40.8256 147.72 40.5378 147.849 40.1675C147.982 39.7973 148.048 39.3626 148.048 38.8636C148.048 38.3645 147.982 37.9319 147.849 37.5656C147.72 37.1994 147.529 36.9157 147.276 36.7144C147.026 36.5132 146.718 36.4126 146.352 36.4126C145.99 36.4126 145.682 36.5112 145.428 36.7084C145.175 36.9056 144.979 37.1873 144.843 37.5536C144.71 37.9198 144.643 38.3565 144.643 38.8636ZM155.578 31.1363V43.4999H152.626V31.1363H155.578ZM161.785 43.675C160.811 43.675 159.974 43.4758 159.274 43.0773C158.578 42.6749 158.04 42.1155 157.662 41.3991C157.288 40.6787 157.101 39.8436 157.101 38.8938C157.101 37.9399 157.288 37.1048 157.662 36.3884C158.04 35.668 158.578 35.1086 159.274 34.7102C159.974 34.3077 160.811 34.1065 161.785 34.1065C162.759 34.1065 163.594 34.3077 164.291 34.7102C164.991 35.1086 165.528 35.668 165.902 36.3884C166.281 37.1048 166.47 37.9399 166.47 38.8938C166.47 39.8436 166.281 40.6787 165.902 41.3991C165.528 42.1155 164.991 42.6749 164.291 43.0773C163.594 43.4758 162.759 43.675 161.785 43.675ZM161.803 41.4474C162.158 41.4474 162.457 41.3387 162.703 41.1214C162.948 40.9041 163.136 40.6022 163.264 40.2158C163.397 39.8295 163.464 39.3827 163.464 38.8756C163.464 38.3605 163.397 37.9097 163.264 37.5234C163.136 37.137 162.948 36.8352 162.703 36.6178C162.457 36.4005 162.158 36.2918 161.803 36.2918C161.437 36.2918 161.127 36.4005 160.874 36.6178C160.624 36.8352 160.433 37.137 160.3 37.5234C160.171 37.9097 160.107 38.3605 160.107 38.8756C160.107 39.3827 160.171 39.8295 160.3 40.2158C160.433 40.6022 160.624 40.9041 160.874 41.1214C161.127 41.3387 161.437 41.4474 161.803 41.4474ZM167.982 43.4999V34.2272H170.934V43.4999H167.982ZM169.461 33.1466C169.047 33.1466 168.691 33.0098 168.393 32.7361C168.095 32.4584 167.946 32.1243 167.946 31.734C167.946 31.3476 168.095 31.0176 168.393 30.7439C168.691 30.4662 169.047 30.3274 169.461 30.3274C169.88 30.3274 170.236 30.4662 170.53 30.7439C170.828 31.0176 170.977 31.3476 170.977 31.734C170.977 32.1243 170.828 32.4584 170.53 32.7361C170.236 33.0098 169.88 33.1466 169.461 33.1466ZM178.047 34.2272V36.4005H172.197V34.2272H178.047ZM173.423 32.0056H176.375V40.5841C176.375 40.7652 176.403 40.9121 176.46 41.0248C176.52 41.1335 176.606 41.2119 176.719 41.2602C176.832 41.3045 176.967 41.3266 177.124 41.3266C177.236 41.3266 177.355 41.3166 177.48 41.2965C177.609 41.2723 177.705 41.2522 177.77 41.2361L178.216 43.3671C178.075 43.4074 177.876 43.4577 177.619 43.518C177.365 43.5784 177.061 43.6166 176.707 43.6327C176.015 43.6649 175.421 43.5845 174.926 43.3913C174.435 43.1941 174.059 42.8882 173.797 42.4737C173.54 42.0591 173.415 41.5379 173.423 40.9101V32.0056ZM187.533 37.0585L184.822 37.131C184.794 36.9378 184.718 36.7667 184.593 36.6178C184.468 36.4649 184.305 36.3462 184.104 36.2617C183.907 36.1731 183.677 36.1288 183.416 36.1288C183.074 36.1288 182.782 36.1973 182.54 36.3341C182.303 36.4709 182.186 36.6561 182.19 36.8895C182.186 37.0706 182.259 37.2276 182.407 37.3604C182.56 37.4932 182.832 37.5998 183.222 37.6803L185.009 38.0184C185.935 38.1955 186.623 38.4893 187.074 38.8998C187.529 39.3103 187.758 39.8536 187.762 40.5298C187.758 41.1657 187.569 41.719 187.195 42.1899C186.824 42.6608 186.317 43.027 185.673 43.2886C185.029 43.5462 184.293 43.675 183.464 43.675C182.14 43.675 181.095 43.4033 180.331 42.86C179.57 42.3127 179.135 41.5802 179.027 40.6626L181.943 40.5901C182.007 40.9282 182.174 41.1858 182.444 41.3629C182.713 41.5399 183.057 41.6285 183.476 41.6285C183.854 41.6285 184.162 41.5581 184.4 41.4172C184.637 41.2763 184.758 41.0892 184.762 40.8558C184.758 40.6465 184.665 40.4795 184.484 40.3547C184.303 40.2259 184.019 40.1253 183.633 40.0528L182.015 39.745C181.085 39.5759 180.393 39.264 179.938 38.8092C179.484 38.3504 179.258 37.7669 179.262 37.0585C179.258 36.4387 179.423 35.9095 179.757 35.4708C180.091 35.0281 180.566 34.69 181.182 34.4566C181.798 34.2232 182.524 34.1065 183.361 34.1065C184.617 34.1065 185.607 34.3701 186.331 34.8973C187.056 35.4205 187.456 36.1409 187.533 37.0585Z" fill="#E8E8E8" fill-opacity="0.909804"/>
</g>
<defs>
<filter id="filter0_d_28_781" x="6.28535" y="2.28565" width="51.4286" height="51.4286" filterUnits="userSpaceOnUse" color-interpolation-filters="sRGB">
<feFlood flood-opacity="0" result="BackgroundImageFix"/>
<feColorMatrix in="SourceAlpha" type="matrix" values="0 0 0 0 0 0 0 0 0 0 0 0 0 0 0 0 0 0 127 0" result="hardAlpha"/>
<feOffset/>
<feGaussianBlur stdDeviation="2.85714"/>
<feComposite in2="hardAlpha" operator="out"/>
<feColorMatrix type="matrix" values="0 0 0 0 0 0 0 0 0 0 0 0 0 0 0 0 0 0 0.25 0"/>
<feBlend mode="normal" in2="BackgroundImageFix" result="effect1_dropShadow_28_781"/>
<feBlend mode="normal" in="SourceGraphic" in2="effect1_dropShadow_28_781" result="shape"/>
</filter>
<filter id="filter1_d_28_781" x="54.3996" y="3.89994" width="140.2" height="48.8644" filterUnits="userSpaceOnUse" color-interpolation-filters="sRGB">
<feFlood flood-opacity="0" result="BackgroundImageFix"/>
<feColorMatrix in="SourceAlpha" type="matrix" values="0 0 0 0 0 0 0 0 0 0 0 0 0 0 0 0 0 0 127 0" result="hardAlpha"/>
<feOffset/>
<feGaussianBlur stdDeviation="2.8"/>
<feComposite in2="hardAlpha" operator="out"/>
<feColorMatrix type="matrix" values="0 0 0 0 0 0 0 0 0 0 0 0 0 0 0 0 0 0 0.25 0"/>
<feBlend mode="normal" in2="BackgroundImageFix" result="effect1_dropShadow_28_781"/>
<feBlend mode="normal" in="SourceGraphic" in2="effect1_dropShadow_28_781" result="shape"/>
</filter>
<linearGradient id="paint0_linear_28_781" x1="100.5" y1="-6.10352e-05" x2="100.5" y2="55.9999" gradientUnits="userSpaceOnUse">
<stop stop-color="#1B1D31"/>
<stop offset="1" stop-color="#11121F"/>
</linearGradient>
</defs>
</svg>
